<svg width="15" height="15" viewBox="0 0 15 15" fill="none" xmlns="http://www.w3.org/2000/svg">
<path d="M7.33816 1.6519C8.1249 0.869304 9.18654 0.425461 10.2962 0.41522C11.4058 0.404979 12.4755 0.829152 13.2765 1.59709C14.0776 2.36503 14.5465 3.41582 14.5831 4.52491C14.6197 5.634 14.221 6.71342 13.4723 7.53248L13.3385 7.67202L7.10512 13.9039L7.07962 13.9252C6.59431 14.3621 5.96414 14.6035 5.31111 14.6025C4.65808 14.6015 4.02864 14.3583 3.54465 13.9199C3.06067 13.4815 2.75655 12.8791 2.6912 12.2293C2.62584 11.5796 2.80389 10.9287 3.19087 10.4026C3.20774 10.37 3.22791 10.3391 3.25108 10.3106L3.28933 10.2681L3.35095 10.2057L3.45083 10.1009L3.45295 10.103L8.72012 4.82311C8.80998 4.73303 8.92918 4.67819 9.05606 4.66857C9.18293 4.65896 9.30904 4.69519 9.41145 4.77069L9.47095 4.8224C9.56103 4.91226 9.61586 5.03146 9.62548 5.15833C9.6351 5.28521 9.59887 5.41132 9.52337 5.51373L9.47237 5.57323L4.09258 10.9658C3.84359 11.2713 3.71779 11.6588 3.7399 12.0523C3.762 12.4458 3.9304 12.8168 4.21204 13.0925C4.49367 13.3682 4.8682 13.5286 5.26207 13.5423C5.65594 13.556 6.04071 13.422 6.34083 13.1666L12.5975 6.91198C13.1773 6.32232 13.5053 5.5305 13.5124 4.70361C13.5195 3.87671 13.2051 3.07939 12.6355 2.47988C12.066 1.88036 11.2858 1.52554 10.4596 1.49027C9.63344 1.45499 8.82587 1.74203 8.20728 2.29081L8.08828 2.40415L8.07978 2.41406L1.32441 9.16873C1.22962 9.26378 1.10235 9.31943 0.968207 9.32447C0.83406 9.32952 0.702977 9.28359 0.601313 9.19592C0.49965 9.10826 0.434944 8.98535 0.420205 8.85192C0.405467 8.71849 0.441789 8.58443 0.521868 8.47669L0.573576 8.41719L7.33745 1.65261H7.33816V1.6519Z" fill="#979797"/>
</svg>
