<svg width="24" height="14" viewBox="0 0 24 14" fill="none" xmlns="http://www.w3.org/2000/svg">
<path d="M0.439312 8.06077L5.75391 13.3754C6.04683 13.6683 6.43069 13.8147 6.81459 13.8147C7.1985 13.8147 7.58236 13.6683 7.87528 13.3754C8.46103 12.7896 8.46103 11.8398 7.87528 11.254L5.12133 8.50013H22.5C23.3284 8.50013 24 7.82855 24 7.00013C24 6.17171 23.3284 5.50013 22.5 5.50013H5.12133L7.87528 2.74622C8.46103 2.16043 8.46103 1.21069 7.87528 0.624895C7.28944 0.0390976 6.33975 0.0390976 5.75391 0.624895L0.439312 5.93949C-0.146437 6.52524 -0.146437 7.47502 0.439312 8.06077Z" fill="white"/>
</svg>
