<svg width="14" height="14" viewBox="0 0 14 14" fill="none" xmlns="http://www.w3.org/2000/svg">
<path d="M12.8422 7.61212C13.1047 7.26525 13.25 6.84025 13.25 6.39806C13.25 5.6965 12.8578 5.03243 12.2266 4.66212C12.0641 4.5668 11.879 4.51663 11.6906 4.51681H7.94375L8.0375 2.5965C8.05938 2.13243 7.89531 1.69181 7.57656 1.35587C7.42013 1.19029 7.23141 1.05855 7.02206 0.968785C6.8127 0.879023 6.58716 0.833148 6.35938 0.833996C5.54688 0.833996 4.82812 1.38087 4.6125 2.16368L3.27031 7.02306H1.25C0.973437 7.02306 0.75 7.2465 0.75 7.52306V13.2106C0.75 13.4871 0.973437 13.7106 1.25 13.7106H10.6453C10.7891 13.7106 10.9297 13.6824 11.0594 13.6262C11.8031 13.309 12.2828 12.5824 12.2828 11.7762C12.2828 11.5793 12.2547 11.3856 12.1984 11.1981C12.4609 10.8512 12.6062 10.4262 12.6062 9.984C12.6062 9.78712 12.5781 9.59337 12.5219 9.40587C12.7844 9.059 12.9297 8.634 12.9297 8.19181C12.9266 7.99493 12.8984 7.79962 12.8422 7.61212ZM1.875 12.5856V8.14806H3.14062V12.5856H1.875ZM11.8188 7.06993L11.4766 7.36681L11.6938 7.76368C11.7653 7.89442 11.8024 8.04121 11.8016 8.19025C11.8016 8.44806 11.6891 8.69337 11.4953 8.86212L11.1531 9.159L11.3703 9.55587C11.4419 9.6866 11.479 9.8334 11.4781 9.98243C11.4781 10.2402 11.3656 10.4856 11.1719 10.6543L10.8297 10.9512L11.0469 11.3481C11.1184 11.4788 11.1555 11.6256 11.1547 11.7746C11.1547 12.1246 10.9484 12.4402 10.6297 12.584H4.14062V8.09806L5.69531 2.46525C5.7354 2.32087 5.82146 2.1935 5.94044 2.10243C6.05943 2.01136 6.20485 1.96155 6.35469 1.96056C6.47344 1.96056 6.59062 1.99493 6.68437 2.06525C6.83906 2.18087 6.92188 2.35587 6.9125 2.54181L6.7625 5.64181H11.675C11.9531 5.81212 12.125 6.09962 12.125 6.39806C12.125 6.65587 12.0125 6.89962 11.8188 7.06993Z" fill="black"/>
</svg>
