<svg width="25" height="24" viewBox="0 0 25 24" fill="none" xmlns="http://www.w3.org/2000/svg">
<path d="M10.9747 2.99627C10.4785 2.99627 10.0758 2.5936 10.0758 2.09745V1.19863C10.0758 0.702477 10.4785 0.299805 10.9747 0.299805C11.4708 0.299805 11.8735 0.702477 11.8735 1.19863V2.09745C11.8735 2.5936 11.4708 2.99627 10.9747 2.99627Z" fill="white"/>
<path d="M18.8188 10.8408C18.3227 10.8408 17.92 10.4382 17.92 9.94202C17.92 6.2892 14.9539 3.17658 11.3083 3.00401C7.65813 2.83548 4.40393 5.64655 4.06013 9.27824C4.03946 9.49531 4.02912 9.71821 4.02912 9.94202C4.02912 10.4382 3.62645 10.8408 3.1303 10.8408C2.63415 10.8408 2.23148 10.4382 2.23148 9.94202C2.23148 9.66159 2.24451 9.38116 2.27057 9.10881C2.70336 4.5356 6.80065 0.99244 11.3932 1.20861C15.9835 1.42567 19.7176 5.34364 19.7176 9.94202C19.7176 10.4386 19.315 10.8408 18.8188 10.8408Z" fill="white"/>
<path d="M20.5036 16.9711C20.282 16.9711 20.0596 16.8893 19.8856 16.7253C18.6363 15.5425 17.9195 13.8769 17.9195 12.1561C17.9195 11.66 18.3221 11.2573 18.8183 11.2573C19.3144 11.2573 19.7171 11.66 19.7171 12.1561C19.7171 13.3853 20.229 14.5753 21.1215 15.4198C21.482 15.7609 21.4977 16.3298 21.1566 16.6907C20.98 16.8768 20.7418 16.9711 20.5036 16.9711Z" fill="white"/>
<path d="M1.44491 16.9711C1.20627 16.9711 0.968532 16.8772 0.791913 16.6903C0.450809 16.3298 0.466538 15.7609 0.826967 15.4198C1.7195 14.5753 2.23138 13.3857 2.23138 12.1561C2.23138 11.66 2.63405 11.2573 3.1302 11.2573C3.62636 11.2573 4.02903 11.66 4.02903 12.1561C4.02903 13.8778 3.31222 15.5434 2.06285 16.7253C1.88848 16.8893 1.66647 16.9711 1.44491 16.9711Z" fill="white"/>
<path d="M10.9746 23.6693C8.53883 23.6693 6.48053 21.611 6.48053 19.1752C6.48053 18.679 6.8832 18.2764 7.37935 18.2764C7.8755 18.2764 8.27818 18.679 8.27818 19.1752C8.27818 20.6367 9.51316 21.8717 10.9746 21.8717C12.4361 21.8717 13.6711 20.6367 13.6711 19.1752C13.6711 18.679 14.0738 18.2764 14.5699 18.2764C15.0661 18.2764 15.4688 18.679 15.4688 19.1752C15.4688 21.611 13.4105 23.6693 10.9746 23.6693Z" fill="white"/>
<path d="M2.68038 20.0737C1.58516 20.0737 0.61084 19.4041 0.197831 18.3678C-0.215628 17.3301 0.0310992 16.1728 0.826558 15.4196C1.18699 15.0781 1.75549 15.0938 2.09749 15.4542C2.4386 15.8147 2.42332 16.3836 2.06289 16.7252C1.6692 17.0982 1.81392 17.5678 1.86784 17.7026C1.92132 17.8365 2.13839 18.2761 2.68038 18.2761C3.17653 18.2761 3.5792 18.6787 3.5792 19.1749C3.5792 19.671 3.17698 20.0737 2.68038 20.0737Z" fill="white"/>
<path d="M19.2681 20.0737C18.772 20.0737 18.3693 19.6711 18.3693 19.1749C18.3693 18.6788 18.772 18.2761 19.2681 18.2761C19.8106 18.2761 20.0281 17.8348 20.082 17.6995C20.1355 17.5651 20.2798 17.0973 19.8861 16.7247C19.5257 16.3832 19.5099 15.8147 19.851 15.4538C20.1926 15.0934 20.7611 15.0776 21.122 15.4187C21.9174 16.172 22.1646 17.3283 21.752 18.3642C21.3386 19.4028 20.3634 20.0737 19.2681 20.0737Z" fill="white"/>
<path d="M3.12985 13.0544C2.63369 13.0544 2.23102 12.6517 2.23102 12.1556V9.94179C2.23102 9.44564 2.63369 9.04297 3.12985 9.04297C3.626 9.04297 4.02867 9.44564 4.02867 9.94179V12.1556C4.02867 12.6517 3.62645 13.0544 3.12985 13.0544Z" fill="white"/>
<path d="M18.8187 13.0544C18.3226 13.0544 17.9199 12.6517 17.9199 12.1556V9.94179C17.9199 9.44564 18.3226 9.04297 18.8187 9.04297C19.3149 9.04297 19.7176 9.44564 19.7176 9.94179V12.1556C19.7176 12.6517 19.3149 13.0544 18.8187 13.0544Z" fill="white"/>
<path d="M19.2682 20.074H2.68044C2.18429 20.074 1.78162 19.6713 1.78162 19.1752C1.78162 18.679 2.18429 18.2764 2.68044 18.2764H19.2678C19.7639 18.2764 20.1666 18.679 20.1666 19.1752C20.1666 19.6713 19.7644 20.074 19.2682 20.074Z" fill="white"/>
<circle cx="18.7644" cy="5.39294" r="4.89294" fill="#E45D32" stroke="white"/>
</svg>
