<svg width="14" height="15" viewBox="0 0 14 15" fill="none" xmlns="http://www.w3.org/2000/svg">
<path d="M3 9.52295C4.24264 9.52295 5.25 8.51559 5.25 7.27295C5.25 6.03031 4.24264 5.02295 3 5.02295C1.75736 5.02295 0.75 6.03031 0.75 7.27295C0.75 8.51559 1.75736 9.52295 3 9.52295Z" stroke="black" stroke-linecap="round" stroke-linejoin="round"/>
<path d="M11 13.5229C12.2426 13.5229 13.25 12.5156 13.25 11.2729C13.25 10.0303 12.2426 9.02295 11 9.02295C9.75736 9.02295 8.75 10.0303 8.75 11.2729C8.75 12.5156 9.75736 13.5229 11 13.5229Z" stroke="black" stroke-linecap="round" stroke-linejoin="round"/>
<path d="M11 5.52295C12.2426 5.52295 13.25 4.51559 13.25 3.27295C13.25 2.03031 12.2426 1.02295 11 1.02295C9.75736 1.02295 8.75 2.03031 8.75 3.27295C8.75 4.51559 9.75736 5.52295 11 5.52295Z" stroke="black" stroke-linecap="round" stroke-linejoin="round"/>
<path d="M5 8.27295L9 10.2729M5 6.27295L9 4.27295" stroke="black" stroke-linecap="round" stroke-linejoin="round"/>
</svg>
