<svg width="14" height="11" viewBox="0 0 14 11" fill="none" xmlns="http://www.w3.org/2000/svg">
<path d="M13.1713 4.58062C13.4873 4.99396 13.4873 5.55196 13.1713 5.96462C12.176 7.26396 9.78797 9.93929 6.99997 9.93929C4.21197 9.93929 1.82397 7.26396 0.828633 5.96462C0.674889 5.76671 0.591431 5.52324 0.591431 5.27262C0.591431 5.02201 0.674889 4.77854 0.828633 4.58062C1.82397 3.28129 4.21197 0.605957 6.99997 0.605957C9.78797 0.605957 12.176 3.28129 13.1713 4.58062V4.58062Z" stroke="black" stroke-linecap="round" stroke-linejoin="round"/>
<path d="M7 7.27246C8.10457 7.27246 9 6.37703 9 5.27246C9 4.16789 8.10457 3.27246 7 3.27246C5.89543 3.27246 5 4.16789 5 5.27246C5 6.37703 5.89543 7.27246 7 7.27246Z" stroke="black" stroke-linecap="round" stroke-linejoin="round"/>
</svg>
